<?xml version="1.0" encoding="UTF-8"?><svg xmlns="http://www.w3.org/2000/svg" viewBox="0 0 133.12 169.79"><defs><style>.d{fill:#231815;}</style></defs><g id="a"/><g id="b"><g id="c"><g><g><g><path class="d" d="M38.21,36.64h4.22c.37,0,.75-.02,1.03,.16,.36,.23,.34,.72,.34,1.16v4.16c0,.42-.02,.84,.2,1.14,.1,.13,.26,.21,.41,.24,.38,.08,.85,.05,1.27,.05h3.55c.36,0,.74,.02,1.04-.1,.57-.24,.45-1.14,.45-1.73v-3.6c0-.42-.04-.88,.19-1.18,.27-.36,.94-.29,1.41-.29h3.58c.58,0,1.34,.1,1.62-.41,.16-.28,.12-.69,.12-1.05v-3.6c0-.39,.03-.82-.03-1.19-.03-.17-.09-.32-.2-.44-.31-.33-1.1-.25-1.6-.25h-3.4c-.46,0-1.11,.07-1.42-.21-.29-.26-.27-.7-.27-1.12v-3.68c0-.45,.06-1.11-.11-1.47-.25-.54-1.01-.43-1.58-.43h-4.28c-.06,0-.12,.02-.19,.03-.11,0-.21,.03-.3,.07-.45,.18-.47,.68-.47,1.15v3.78c0,.45,.06,1.1-.11,1.45-.08,.17-.22,.29-.4,.35-.06,.02-.11,.03-.17,.05-.03,0-.06,0-.09,.01-.06,0-.13,0-.17,.01h-4.63c-.12,0-.29-.03-.39,.01-.06,0-.14,0-.19,.01-.62,0-.77,.54-.77,1.09v4.48c0,.35-.01,.72,.15,.98,.23,.38,.72,.36,1.17,.36Z"/><path class="d" d="M77.22,36.51c.33,.18,1.01,.12,1.44,.12h3.16c.48,0,1.22-.07,1.57,.16,.44,.3,.33,1.14,.33,1.69v2.85c0,.5-.04,1.04,.03,1.5,.02,.16,.08,.32,.19,.44,.1,.12,.25,.18,.4,.22,.38,.08,.85,.05,1.27,.05h3.6c.33,0,.68,.02,.96-.09,.6-.25,.47-1.1,.47-1.72v-3.56c0-.44-.05-.93,.2-1.25,.28-.35,.92-.28,1.39-.28h3.6c.59,0,1.34,.1,1.6-.43,.14-.29,.11-.7,.11-1.06v-3.48c0-.42,.04-.89-.03-1.29-.03-.16-.08-.32-.2-.44-.33-.33-1.12-.25-1.64-.25h-3.58c-.42,0-.88,.04-1.17-.2-.32-.25-.28-.74-.28-1.16v-3.63c0-.46,.06-1.12-.11-1.48-.24-.53-.97-.43-1.54-.43h-4.32c-.06,0-.12,.02-.19,.03-.11,0-.21,.03-.3,.07-.45,.18-.47,.68-.47,1.15v3.75c0,.46,.06,1.12-.11,1.48-.07,.15-.21,.29-.37,.34-.07,.02-.13,.04-.2,.06-.03,0-.06,0-.09,.01-.06,0-.13,0-.17,.01h-4.65c-.11,0-.28-.03-.37,.01-.06,0-.14,0-.19,.01-.32,0-.61,.2-.7,.49-.05,.15-.06,.31-.07,.47,0,1.31,0,2.62,0,3.93v.64c0,.33-.03,.72,.13,.97,.07,.12,.16,.21,.28,.28Z"/><path class="d" d="M113.39,63.88c-.19-.1-.37-.21-.56-.31-1.74-.97-3.48-1.94-5.22-2.9-7.44-4.14-14.88-8.28-22.32-12.42-4.3-2.39-8.61-4.79-12.91-7.18-1.04-.58-2.09-1.16-3.13-1.74-.26-.14-.51-.29-.77-.43-.34-.19-.69-.43-1.09-.49h-.31c-.12,.04-.25,.07-.37,.12-.28,.12-.53,.28-.79,.42-.42,.23-.84,.47-1.26,.7-1.4,.78-2.79,1.55-4.19,2.33-4.41,2.45-8.81,4.9-13.22,7.35-5.85,3.25-11.7,6.51-17.55,9.76-1.99,1.11-3.98,2.22-5.98,3.32-.63,.35-1.27,.71-1.9,1.06-.42,.22-.84,.44-1.23,.71-.17,.11-.66,.45-.37,.68,.27,.22,1.12,.18,1.54,.18h9.48c.45,0,.93,.01,1.34-.05,.61-.09,1.15-.48,1.66-.75,.89-.5,1.78-.99,2.67-1.49,3.07-1.71,6.15-3.42,9.22-5.13,.76-.42,1.53-.85,2.29-1.27,.32-.18,.64-.35,.96-.53,.2-.1,.41-.22,.63-.28,.22-.06,.45-.09,.69-.1,7.46,0,14.92,0,22.38,0h9.83c.54,0,1.09-.02,1.56,.1,.3,.08,.57,.24,.83,.38,.3,.17,.6,.33,.9,.5,1.11,.62,2.22,1.24,3.34,1.85,2.44,1.36,4.89,2.72,7.33,4.08,.76,.42,1.53,.85,2.29,1.27,.69,.39,1.37,.79,2.08,1.15,.57,.29,1.23,.26,1.96,.26h9.61c.41,0,.87,.02,1.23-.08,.12-.03,.27-.08,.31-.21,.12-.31-.75-.76-.94-.87Zm-39.88-14.12c-.08,.14-.22,.13-.34,.2-.03,0-.06,0-.09,.01-.03,0-.07,0-.1,.01-.05,0-.12,0-.16,.01-.09,0-.22-.02-.3,.01h-10.14c-.39,0-.79,0-1.14-.08-.11-.03-.25-.07-.3-.18-.17-.37,1.06-.98,1.3-1.11,1.02-.57,2.05-1.14,3.07-1.71,.25-.14,.5-.28,.76-.42,.18-.1,.36-.19,.54-.29,.09-.04,.2-.09,.3-.12l.18-.05c.51,0,.78,.17,1.17,.39,.3,.17,.6,.33,.9,.5,1.03,.58,2.07,1.15,3.1,1.72,.22,.12,1.44,.73,1.25,1.08Z"/><path class="d" d="M103.38,85.28h-4.52c-.09,0-.21-.02-.29,.01-.06,0-.15-.01-.2,.01-.73,0-.95,.8-1.12,1.34-.2,.62-.46,1.22-.71,1.82-.14,.34-.3,.77-.58,1.03-.11,.1-.23,.16-.36,.21-.06,.02-.11,.03-.17,.05h-.1c-.06,.01-.13,0-.17,.03H41.43c-.34,0-1.49,.05-1.49-.34,0-.11,.09-.23,.17-.3,.22-.2,.47-.33,.71-.48,.31-.17,.62-.35,.93-.52,1.11-.62,2.22-1.23,3.33-1.85,.26-.14,.51-.29,.77-.43,.34-.2,.69-.4,1.08-.49,.36-.08,.75-.08,1.16-.08h38.19c.41,0,.95,.05,1.27-.12,.48-.27,.41-.93,.41-1.48v-22.48c0-.49,.07-1.11-.33-1.38-.34-.23-.98-.16-1.45-.16H47.45c-.06,0-.12,.02-.19,.03-.28,0-.55,.16-.66,.4-.16,.36-.11,.86-.11,1.3v14.95c0,.37,.03,.79-.07,1.11-.06,.19-.15,.36-.3,.5-.21,.2-.48,.33-.72,.47-.41,.23-.82,.46-1.24,.69-1.48,.83-2.97,1.65-4.45,2.47-4.39,2.44-8.78,4.88-13.17,7.33-1.64,.91-3.27,1.82-4.91,2.73-.3,.16-1.5,.76-1.54,1.12-.01,.14,.1,.22,.21,.26,.24,.09,.52,.08,.8,.1,.57,.03,1.18,.01,1.76,.01h8.05c.45,0,.93-.04,1.3,.14,.39,.18,.57,.62,.76,.97,.14,.26,.28,.52,.43,.78,.73,1.36,1.62,2.68,2.53,3.95,1.37,1.89,2.95,3.69,4.73,5.36,.47,.44,.95,.86,1.42,1.28,.2,.17,.4,.34,.6,.5,.38,.28,.73,.6,1.11,.88,.24,.18,.49,.36,.73,.54,.37,.25,.74,.52,1.11,.78,.63,.43,1.28,.83,1.93,1.22,1.7,1.03,3.5,1.88,5.34,2.63,.65,.27,1.32,.49,1.99,.73,.26,.08,.52,.17,.78,.25,.53,.17,1.07,.33,1.62,.47,.23,.06,.47,.12,.7,.18,.5,.14,1.01,.23,1.53,.34,1.49,.32,3.02,.49,4.59,.64,.75,.07,1.52,.1,2.3,.11,2.61,.04,5.12-.13,7.49-.57,1.07-.2,2.11-.41,3.13-.68,4.89-1.33,9.29-3.42,13.32-6.44,1.11-.83,2.18-1.72,3.22-2.69,.24-.23,.48-.45,.72-.68,.78-.78,1.52-1.55,2.21-2.35,.39-.46,.77-.93,1.14-1.39,.57-.69,1.08-1.43,1.58-2.16,.44-.65,.86-1.31,1.26-1.97,.38-.63,.72-1.28,1.07-1.92,.19-.38,.38-.76,.57-1.14,.27-.58,.54-1.15,.79-1.75,.18-.43,.35-.87,.52-1.31,.21-.54,.39-1.09,.58-1.64,.13-.39,.26-.79,.37-1.19,.1-.38,.28-.76,.24-1.19-.06-.58-.77-.54-1.27-.54Zm-49.96-17.13c0-.31-.01-.63,.04-.92,.03-.13,.07-.24,.15-.34,.12-.17,.33-.24,.53-.27,.07,0,.14-.02,.21-.03h25.04c.32,0,.68-.03,.97,.04,.23,.05,.43,.14,.54,.35,.18,.34,.13,.84,.13,1.27,0,.39,.04,.84-.13,1.14-.08,.14-.21,.25-.36,.3-.06,.02-.12,.04-.19,.06-.03,0-.06,0-.09,.01-.06,0-.12,0-.17,.01h-25.06c-.35,0-.72,.03-1.03-.05-.2-.05-.38-.16-.48-.35-.17-.33-.12-.81-.12-1.23Zm.18,7.37c.13-.18,.33-.26,.54-.29,.07,0,.14-.02,.21-.03h25.02c.33,0,.68-.02,.99,.03,.23,.04,.42,.14,.55,.34,.17,.28,.14,.77,.14,1.14,0,.41,.05,.98-.14,1.29-.09,.14-.21,.23-.36,.29-.06,.02-.12,.03-.17,.05h-.09c-.06,.01-.12,0-.17,.03h-25.06c-.35,0-.72,.02-1.03-.05-.22-.05-.39-.18-.49-.38-.14-.28-.11-.67-.11-1.02,0-.46-.07-1.08,.18-1.41Zm36.62,22.6c-.33,.38-.73,.74-1.09,1.09-.57,.55-1.15,1.05-1.74,1.55-2.84,2.36-6.03,4.15-9.45,5.37-1.04,.37-2.11,.71-3.2,.96-.35,.08-.7,.16-1.05,.24-.12,.02-.25,.05-.37,.07-.04,.01-.09,.02-.13,.03-.07,0-.17,.01-.23,.04-.05,0-.11,0-.16,.03-.03,0-.06,0-.09,.01-.03,0-.06,0-.09,.01h-.09s-.06,.02-.09,.03c-.03,0-.06,0-.09,.01h-.09s-.06,.02-.09,.03h-.1s-.06,.02-.09,.03c-.03,0-.07,0-.1,.01h-.1s-.07,.02-.1,.03c-.03,0-.07,0-.1,.01h-.1s-.08,.02-.11,.03c-.03,0-.07,0-.1,.01h-.11s-.08,.02-.11,.03h-.13l-.11,.03s-.09,0-.13,.01c-.04,0-.11,0-.14,.01-.05,0-.11,0-.14,.01-.05,0-.11,0-.14,.01-.05,0-.11,0-.16,.01-.05,0-.11,0-.16,.01-.06,0-.12,0-.17,.01-.06,0-.13,0-.19,.01-.06,0-.15,0-.2,.01-.07,0-.17-.01-.23,.01-.08,0-.18-.01-.24,.01-.09,0-.22-.02-.3,.01-.1,0-.29-.02-.37,.01h-.4c-.06,0-.14,0-.19,.01-1.47,0-2.89-.05-4.26-.23-1.14-.15-2.26-.33-3.35-.59-3.85-.91-7.36-2.44-10.58-4.62-1.61-1.09-3.15-2.33-4.59-3.77-.29-.29-.57-.56-.83-.86-.16-.18-.35-.37-.43-.59-.05-.15-.05-.32,.07-.43,.12-.11,.32-.14,.49-.16,.06,0,.11-.01,.17-.02h45.28c.32,0,.69-.02,.96,.09,.13,.05,.23,.14,.26,.28,.08,.33-.45,.8-.66,1.04Z"/></g><path class="d" d="M0,66.56c0,36.7,29.86,66.56,66.56,66.56s66.56-29.86,66.56-66.56S103.26,0,66.56,0,0,29.86,0,66.56Zm7.59,0C7.59,34.04,34.04,7.59,66.56,7.59s58.97,26.45,58.97,58.97-26.45,58.97-58.97,58.97S7.59,99.07,7.59,66.56Z"/></g><g><path class="d" d="M75.76,169.64c0,.09-.09,.15-.18,.15h-2.05c-.1,0-.18-.06-.18-.15v-7.63c0-.09-.06-.15-.16-.15h-.37c-.06,0-.15,.06-.15,.15v7.63c0,.09-.06,.15-.16,.15h-5.87c-.06,0-.18-.02-.25-.09l-1.21-1.21c-.06-.06-.09-.15-.09-.25v-9.19c0-.06,.06-.15,.15-.15h8.95c.09,0,.21,.06,.27,.12l1.17,1.17c.06,.06,.12,.18,.12,.27v9.16Zm-7.59-7.63c0-.09-.06-.15-.16-.15h-.37c-.09,0-.15,.06-.15,.15v2.74c0,.09,.06,.15,.15,.15h.37c.1,0,.16-.06,.16-.15v-2.74Z"/><g><path class="d" d="M104.28,145.91c.23,0,.37,.2,.37,.34v3.22c0,.2-.14,.34-.37,.34h-5.89c-.23,0-.37,.23-.37,.37v2.49c0,.23,.14,.37,.37,.37h5.47c.23,0,.37,.14,.37,.34v5.62c0,.14-.14,.34-.37,.34h-24.05c-.14,0-.34-.2-.34-.34v-5.62c0-.2,.2-.34,.34-.34h5.21c.2,0,.34-.14,.34-.37v-2.49c0-.14-.14-.37-.34-.37h-5.69c-.23,0-.37-.14-.37-.34v-3.22c0-.14,.14-.34,.37-.34h5.69c.2,0,.34-.14,.34-.37v-1.05c0-.23,.23-.37,.37-.37h11.96c.14,0,.34,.14,.34,.37v1.05c0,.23,.14,.37,.37,.37h5.89Zm-24.25,15.09c0-.23,.2-.37,.34-.37h2.51c.2,0,.34,.14,.34,.37v6.75c0,.2-.06,.48-.14,.63l-.77,1.14c-.09,.14-.37,.28-.57,.28h-2.42c-.23,0-.37-.14-.37-.34v-3.93c0-.14,.14-.34,.37-.34h.34c.23,0,.37-.14,.37-.37v-3.81Zm12.38,3.76c0,.2,.14,.34,.34,.34h4.36c.14,0,.34,.23,.34,.37v3.99c0,.2-.2,.34-.34,.34h-12.18c-.14,0-.34-.14-.34-.34v-8.45c0-.23,.2-.37,.34-.37h7.12c.23,0,.37,.14,.37,.37v3.76Zm1.2-3.76c0-.23,.23-.37,.37-.37h3.13c.14,0,.34,.14,.34,.37v2.19c0,.2-.2,.34-.34,.34h-3.13c-.14,0-.37-.14-.37-.34v-2.19Zm9.62,1.91c0,.2,.14,.34,.34,.34h.71c.23,0,.37,.14,.37,.37v5.84c0,.2-.14,.34-.37,.34h-3.99c-.2,0-.48-.14-.57-.28l-.85-1.2c-.06-.23-.14-.51-.14-.71v-6.6c0-.23,.14-.37,.37-.37h3.76c.23,0,.37,.14,.37,.37v1.91Z"/><path class="d" d="M127.14,152.88c-.23,0-.37,.2-.37,.43v5.87c0,.2,.14,.34,.37,.34h4.7c.2,0,.34,.23,.34,.43v9.5c0,.2-.14,.34-.34,.34h-23.14c-.2,0-.34-.14-.34-.34v-9.5c0-.2,.14-.43,.34-.43h5.07c.2,0,.34-.14,.34-.34v-5.87c0-.23-.14-.43-.34-.43h-5.98c-.23,0-.37-.14-.37-.37v-3c0-.23,.14-.37,.37-.37h5.98c.2,0,.34-.14,.34-.34v-4.32c0-.23,.23-.37,.37-.37h11.96c.2,0,.34,.14,.34,.37v4.32c0,.2,.14,.34,.37,.34h5.61c.23,0,.37,.14,.37,.37v3c0,.23-.14,.37-.37,.37h-5.61Z"/></g><g><path class="d" d="M43.27,162.32c.17,0,.27,.11,.27,.27v6.88c0,.15-.11,.32-.27,.32h-12.51c-.15,0-.36-.11-.46-.21l-1.58-1.58c-.11-.11-.21-.32-.21-.48v-12.76c0-.15,.15-.32,.25-.32h12.57c.11,0,.32,.11,.42,.21l1.58,1.58c.11,.11,.21,.32,.21,.48v2.88c0,.17-.11,.27-.27,.27h-4.42c-.15,0-.25-.11-.25-.27v-.99c0-.17-.17-.27-.27-.27h-2.14c-.17,0-.27,.11-.27,.27v5.15c0,.11,.11,.25,.27,.25h2.14c.11,0,.27-.15,.27-.25v-1.16c0-.17,.11-.27,.25-.27h4.42Z"/><path class="d" d="M61.74,156.23c.11,.11,.17,.32,.17,.48v12.76c0,.15-.11,.25-.27,.25h-12.51c-.15,0-.36-.04-.46-.15l-1.58-1.58c-.11-.11-.21-.32-.21-.48v-12.76c0-.15,.15-.25,.32-.25h12.51c.15,0,.36,.04,.46,.15l1.58,1.58Zm-5.05,7.21c.17,0,.27-.11,.27-.27v-4.56c0-.17-.11-.27-.27-.27h-2.14c-.11,0-.27,.11-.27,.27v4.56c0,.17,.17,.27,.27,.27h2.14Z"/><path class="d" d="M.38,144.11c-.23,0-.38,.23-.38,.38v23.03l2.18,2.18H24.81c.14,0,.38-.14,.38-.35v-8.94c0-.14-.23-.35-.38-.35H12.55c-.14,0-.35-.14-.35-.38v-1.5c0-.14,.2-.38,.35-.38h12.26c.14,0,.38-.14,.38-.35v-4.33c0-.23-.23-.38-.38-.38H12.55c-.14,0-.35-.2-.35-.43v-1.36c0-.23,.2-.38,.35-.38h12.26c.14,0,.38-.2,.38-.35v-3.96l-2.18-2.18H.38Z"/></g></g></g></g></g></svg>