<svg xmlns="http://www.w3.org/2000/svg" width="364.577" height="137.083" viewBox="0 0 364.577 137.083">
  <g id="グループ_1831" data-name="グループ 1831" transform="translate(-12131.89 -1330.917)">
    <g id="グループ_1830" data-name="グループ 1830" transform="translate(342 -204)">
      <rect id="長方形_1468" data-name="長方形 1468" width="364" height="36" rx="6" transform="translate(11790 1636)" fill="#fff"/>
      <text id="Study_to_earn" data-name="Study to earn" transform="translate(11973 1662)" fill="#231815" font-size="22" font-family="Futura-Bold, Futura" font-weight="700" letter-spacing="0.02em"><tspan x="-83.347" y="0">Study to earn</tspan></text>
    </g>
    <g id="グループ_1824" data-name="グループ 1824" transform="translate(12131.89 1330.917)">
      <g id="グループ_1697" data-name="グループ 1697" transform="translate(0 0)">
        <g id="レイヤー_1" data-name="レイヤー 1" transform="translate(0)">
          <path id="パス_1" data-name="パス 1" d="M56.17,95.835H22.012C8.059,95.835,0,87.408,0,74.63V41.2H24.012V68.474c0,3.438,1.631,4.385,5.069,4.385h.544V41.2H48.383V72.824h.728c3.447,0,5.078-.877,5.078-4.385V41.2h24V74.63C78.191,87.408,70.21,95.835,56.17,95.835Z" transform="translate(0 -5.069)" fill="#231815"/>
          <path id="パス_2" data-name="パス 2" d="M175.614,59.957v4.736c0,2.631.36,3.148,3.262,3.148h24.915v25.73h-33.43c-15.04,0-20.39-7.691-20.39-19.416v-14.2H138.65V34.034h11.322V22.8h25.643V34.034h29.44V59.957Z" transform="translate(-17.058 -2.805)" fill="#231815"/>
          <path id="パス_3" data-name="パス 3" d="M265.6,92.2V63.324c0-2.631-.877-4.341-3.99-4.341H253.55c-2.99,0-3.99,1.377-3.99,4.736V92.2H223.47V11.67h26.09V34.243a14.909,14.909,0,0,1,5.946-1.473h14.681c14.5,0,21.468,6.209,21.468,24.345V92.194Z" transform="translate(-27.493 -1.436)" fill="#231815"/>
          <path id="パス_4" data-name="パス 4" d="M100.55,0V20.477h26V0Zm20.863,4.955a.877.877,0,1,1,.877-.877A.877.877,0,0,1,121.413,4.955Z" transform="translate(-12.37)" fill="#231815"/>
          <circle id="楕円形_1" data-name="楕円形 1" cx="7.025" cy="7.025" r="7.025" transform="translate(94.152 3.21)" fill="#fff100"/>
          <circle id="楕円形_2" data-name="楕円形 2" cx="4.709" cy="4.709" r="4.709" transform="translate(96.467 5.525)" fill="#231815"/>
          <path id="パス_5" data-name="パス 5" d="M119.594,28.75v52h7.016v-52Zm-10.524,52h9.182v-52h-9.217Zm-8.41,0h7.016v-52H100.66Z" transform="translate(-12.384 -3.537)" fill="#040000"/>
          <path id="パス_6" data-name="パス 6" d="M126.622,89.38l-11.936,11.944a1.508,1.508,0,0,1-2.131,0L100.62,89.38" transform="translate(-12.379 -10.996)" fill="#040000"/>
        </g>
      </g>
    </g>
    <g id="グループ_1825" data-name="グループ 1825" transform="translate(12408.89 1318.958)">
      <path id="iconmonstr-dashboard-7" d="M73.058,38.005a32.659,32.659,0,0,0-1.883-4.532L62.22,37.509a22.6,22.6,0,0,1,1.887,4.532Zm-45.879-3.3a21.714,21.714,0,0,1,3.353-3.492l-6.9-7.185a31.9,31.9,0,0,0-3.35,3.492Zm6.258-5.528a20.576,20.576,0,0,1,4.372-1.908L34.035,17.9a30.516,30.516,0,0,0-4.372,1.912ZM23.369,42.377a22.743,22.743,0,0,1,1.817-4.561l-9.01-3.89a32.538,32.538,0,0,0-1.817,4.561l9.01,3.89ZM57.794,19.753a30.272,30.272,0,0,0-4.379-1.894l-3.737,9.389a20.477,20.477,0,0,1,4.379,1.894Zm9.491,7.772a32.247,32.247,0,0,0-3.35-3.492l-6.9,7.185a21.843,21.843,0,0,1,3.35,3.492ZM46.153,16.363c-.8-.066-1.595-.095-2.368-.095s-1.573.033-2.372.095V26.522a20.68,20.68,0,0,1,2.372-.139,19.78,19.78,0,0,1,2.368.139ZM87.577,46.789A43.5,43.5,0,0,1,81.7,68.679l-6.335-3.66a36.491,36.491,0,1,0-63.158,0l-6.335,3.66a43.785,43.785,0,1,1,81.7-21.891Z" transform="translate(0 8.96)"/>
      <text id="PLUS" transform="translate(14.155 101.41)" fill="#231815" font-size="22" font-family="Futura-Bold, Futura" font-weight="700"><tspan x="0" y="0">PLUS</tspan></text>
      <g id="グループ_1676" data-name="グループ 1676" transform="translate(27.756 43.49)">
        <g id="グループ_1655" data-name="グループ 1655" transform="translate(0)">
          <rect id="長方形_1395" data-name="長方形 1395" width="32.84" height="7" rx="3" transform="translate(12.92 32.84) rotate(-90)" fill="#231815"/>
          <rect id="長方形_1417" data-name="長方形 1417" width="32.84" height="7" rx="3" transform="translate(0 12.92)" fill="#231815"/>
        </g>
      </g>
    </g>
  </g>
</svg>
