<!--?xml version="1.0" encoding="utf-8"?-->
<!-- Generator: Adobe Illustrator 15.1.0, SVG Export Plug-In . SVG Version: 6.00 Build 0)  -->

<svg version="1.1" id="_x32_" xmlns="http://www.w3.org/2000/svg" xmlns:xlink="http://www.w3.org/1999/xlink" x="0px" y="0px" width="512px" height="512px" viewBox="0 0 512 512" style="width: 256px; height: 256px; opacity: 1;" xml:space="preserve">
<style type="text/css">

	.st0{fill:#4B4B4B;}

</style>
<g>
	<path class="st0" d="M87.656,215.156H18.922C8.469,215.156,0,223.625,0,234.094v198.094c0,10.453,8.469,18.922,18.922,18.922
		h68.734c10.469,0,18.938-8.469,18.938-18.922V234.094C106.594,223.625,98.125,215.156,87.656,215.156z M64,421.063
		c-9.688,0-17.531-7.844-17.531-17.531C46.469,393.859,54.313,386,64,386s17.531,7.859,17.531,17.531
		C81.531,413.219,73.688,421.063,64,421.063z" style="fill: rgb(0, 0, 0);"></path>
	<path class="st0" d="M480.078,183.594H292.063c-2.438,0-4.766,0.328-7.031,0.828h-2.703c7.672-15.078,14.313-35.016,12.047-58.844
		c-2.125-22.453-21.047-62.109-50.219-64.453c-22.469-1.797-26.813,6.625-26.813,29.172c0,0,0.25,21.844,0.25,35.844
		c0,25.078-8.359,37.828-37.844,58.984c-38.891,27.875-45.641,42.281-45.641,42.281v150.25c0,30.047,20.641,54.094,59.031,54.094
		h51.469h88.656c19.344,0,45.516-9.344,45.516-34.984c0-9.609-3.875-18.297-10.141-24.625c16.922-2.453,29.969-16.891,29.969-34.5
		c0-10.938-5.109-20.578-12.984-27c12.438-5.375,21.141-17.703,21.141-32.109c0-13.641-7.859-25.328-19.25-31.094h92.563
		c17.625,0,31.922-14.281,31.922-31.922C512,197.891,497.703,183.594,480.078,183.594z" style="fill: rgb(0, 0, 0);"></path>
</g>
</svg>
