<svg id="無料の設定歯車アイコン" xmlns="http://www.w3.org/2000/svg" width="8.333" height="8.333" viewBox="0 0 8.333 8.333">
  <path id="パス_2154" data-name="パス 2154" d="M8.133,3.418l-.909-.042a.214.214,0,0,1-.188-.132l-.187-.451a.215.215,0,0,1,.04-.226L7.5,1.894a.215.215,0,0,0-.007-.3L6.739.842a.215.215,0,0,0-.3-.007l-.672.613a.214.214,0,0,1-.227.04L5.093,1.3a.214.214,0,0,1-.132-.188L4.919.2A.214.214,0,0,0,4.705,0H3.636a.215.215,0,0,0-.214.2l-.042.909a.214.214,0,0,1-.132.188L2.8,1.488a.214.214,0,0,1-.227-.04L1.9.836a.215.215,0,0,0-.3.007L.847,1.6a.214.214,0,0,0-.007.3l.613.673a.214.214,0,0,1,.039.226l-.187.451a.214.214,0,0,1-.188.132l-.909.042a.214.214,0,0,0-.2.214V4.7a.214.214,0,0,0,.2.214l.909.042a.214.214,0,0,1,.188.132l.187.451a.214.214,0,0,1-.039.226L.84,6.439a.215.215,0,0,0,.007.3l.756.756a.214.214,0,0,0,.3.007l.672-.613a.214.214,0,0,1,.227-.04l.451.187a.214.214,0,0,1,.132.188l.042.909a.215.215,0,0,0,.214.2H4.705a.214.214,0,0,0,.214-.2l.042-.909a.214.214,0,0,1,.132-.188l.451-.187a.214.214,0,0,1,.227.04l.672.613a.215.215,0,0,0,.3-.007l.756-.756a.215.215,0,0,0,.007-.3l-.613-.672a.214.214,0,0,1-.04-.226l.187-.451a.214.214,0,0,1,.188-.132l.909-.042a.214.214,0,0,0,.2-.214V3.632A.214.214,0,0,0,8.133,3.418ZM4.171,5.528A1.361,1.361,0,1,1,5.531,4.167,1.361,1.361,0,0,1,4.171,5.528Z" transform="translate(-0.004)" fill="#fff"/>
</svg>
