<svg xmlns="http://www.w3.org/2000/svg" width="224.582" height="60.567" viewBox="0 0 224.582 60.567">
  <g id="グループ_1688" data-name="グループ 1688" transform="translate(-5057.605 325.338)">
    <g id="グループ_1697" data-name="グループ 1697" transform="translate(-10 -13)">
      <g id="レイヤー_1" data-name="レイヤー 1" transform="translate(5067.605 -312.338)">
        <path id="パス_1" data-name="パス 1" d="M36.862,77.054H14.445C5.289,77.054,0,71.524,0,63.139V41.2H15.758V59.1c0,2.256,1.07,2.878,3.326,2.878h.357V41.2h12.31V61.953h.478c2.262,0,3.332-.576,3.332-2.878V41.2H51.313V63.139C51.313,71.524,46.075,77.054,36.862,77.054Z" transform="translate(0 -17.489)" fill="#231815"/>
        <path id="パス_2" data-name="パス 2" d="M162.908,47.184v3.108c0,1.727.236,2.066,2.141,2.066H181.4V69.244H159.46c-9.87,0-13.381-5.047-13.381-12.742V47.184h-7.43V30.172h7.43V22.8h16.828v7.372h19.32V47.184Z" transform="translate(-58.855 -9.678)" fill="#231815"/>
        <path id="パス_3" data-name="パス 3" d="M251.118,64.519V45.568c0-1.727-.576-2.849-2.619-2.849H243.21c-1.962,0-2.618.9-2.618,3.108V64.519H223.47V11.67h17.121V26.484a9.784,9.784,0,0,1,3.9-.967h9.634c9.513,0,14.089,4.075,14.089,15.976v23.02Z" transform="translate(-94.86 -4.954)" fill="#231815"/>
        <path id="パス_4" data-name="パス 4" d="M100.55,0V13.438h17.064V0Zm13.691,3.252a.576.576,0,1,1,.576-.576A.576.576,0,0,1,114.241,3.252Z" transform="translate(-42.682)" fill="#231815"/>
        <circle id="楕円形_1" data-name="楕円形 1" cx="4.61" cy="4.61" r="4.61" transform="translate(61.787 2.106)" fill="#fff100"/>
        <circle id="楕円形_2" data-name="楕円形 2" cx="3.09" cy="3.09" r="3.09" transform="translate(63.306 3.626)" fill="#231815"/>
        <path id="パス_5" data-name="パス 5" d="M113.085,28.75V62.878h4.6V28.75Zm-6.906,34.128H112.2V28.75h-6.049Zm-5.519,0h4.6V28.75h-4.6Z" transform="translate(-42.729 -12.204)" fill="#040000"/>
        <path id="パス_6" data-name="パス 6" d="M117.684,89.38l-7.833,7.838a.99.99,0,0,1-1.4,0L100.62,89.38" transform="translate(-42.712 -37.941)" fill="#040000"/>
      </g>
      <g id="グループ_1696" data-name="グループ 1696">
        <path id="iconmonstr-dashboard-7" d="M34.348,19.458a15.355,15.355,0,0,0-.885-2.131l-4.21,1.9a10.626,10.626,0,0,1,.887,2.131Zm-21.57-1.549a10.209,10.209,0,0,1,1.577-1.642l-3.242-3.378A15,15,0,0,0,9.537,14.53Zm2.942-2.6a9.674,9.674,0,0,1,2.055-.9L16,10a14.347,14.347,0,0,0-2.055.9Zm-4.733,6.2a10.692,10.692,0,0,1,.854-2.144L7.605,17.54a15.3,15.3,0,0,0-.854,2.144l4.236,1.829ZM27.171,10.876a14.232,14.232,0,0,0-2.059-.89L23.356,14.4a9.627,9.627,0,0,1,2.059.89Zm4.462,3.654a15.161,15.161,0,0,0-1.575-1.642l-3.242,3.378a10.27,10.27,0,0,1,1.575,1.642ZM21.7,9.282c-.376-.031-.75-.045-1.113-.045s-.739.015-1.115.045v4.776a9.722,9.722,0,0,1,1.115-.065,9.3,9.3,0,0,1,1.113.065Zm19.475,14.3a20.453,20.453,0,0,1-2.762,10.292l-2.978-1.721a17.156,17.156,0,1,0-29.693,0L2.762,33.879A20.585,20.585,0,1,1,41.174,23.587Z" transform="translate(5251.013 -311.053)"/>
        <text id="PLUS" transform="translate(5256.599 -256.771)" fill="#231815" stroke="#231815" stroke-width="1" font-size="12" font-family="NotoSans-ExtraBold, Noto Sans" font-weight="800"><tspan x="0" y="0">PLUS</tspan></text>
        <g id="グループ_1676" data-name="グループ 1676" transform="translate(5258.902 -293.481)">
          <g id="グループ_1655" data-name="グループ 1655" transform="translate(0)">
            <rect id="長方形_1395" data-name="長方形 1395" width="25.394" height="5.413" rx="2" transform="translate(9.991 25.394) rotate(-90)" fill="#231815"/>
            <rect id="長方形_1417" data-name="長方形 1417" width="25.394" height="5.413" rx="2" transform="translate(0 9.991)" fill="#231815"/>
          </g>
        </g>
      </g>
    </g>
  </g>
</svg>
